# xmcd
#
# Track frame offsets:
#	150
#	16450
#	30343
#	45726
#	58975
#	73272
#	87512
#	104405
#	116165
#	126919
#	142512
#	155553
#
# Disc length: 2339 seconds
#
# Revision: 0
# Processed by: cddbd v1.5.2PL0 Copyright (c) Steve Scherf et al.
# Submitted via: audiograbber 1.83.01
#
DISCID=a809210c
DTITLE=Domenico Modugno - I Grandi Successi
DYEAR=1900
DGENRE=
TTITLE0=Nel Blu Dipinto Di Blu
TTITLE1=Piove
TTITLE2=Nisciuno Po` Sape`
TTITLE3=Milioni Di Scintille
TTITLE4=Lu Pisce Spada
TTITLE5=Pasqualino Maragia
TTITLE6=Notte Chiara
TTITLE7=`O Ccaffe
TTITLE8=La Donna Riccia
TTITLE9=Addio... Addio
TTITLE10=Marinai Donne E Guai
TTITLE11=Notte Di Luna Calante
EXTD=
EXTT0=
EXTT1=
EXTT2=
EXTT3=
EXTT4=
EXTT5=
EXTT6=
EXTT7=
EXTT8=
EXTT9=
EXTT10=
EXTT11=
PLAYORDER=
